<svg xmlns="http://www.w3.org/2000/svg" viewBox="0 0 48 48" fill="none">
  <defs>
    <linearGradient id="glow" x1="0" y1="0" x2="48" y2="48" gradientUnits="userSpaceOnUse">
      <stop stop-color="#00F2FE"/>
      <stop offset="0.5" stop-color="#6C5CE7"/>
      <stop offset="1" stop-color="#00FFA3"/>
    </linearGradient>
    <linearGradient id="eclipse" x1="12" y1="12" x2="36" y2="36" gradientUnits="userSpaceOnUse">
      <stop stop-color="#00F2FE" stop-opacity="0.9"/>
      <stop offset="1" stop-color="#6C5CE7" stop-opacity="0.4"/>
    </linearGradient>
  </defs>
  <rect width="48" height="48" rx="12" fill="#07090E"/>
  <polygon points="24,3 42,13.5 42,34.5 24,45 6,34.5 6,13.5" stroke="#00F2FE" stroke-opacity="0.6" stroke-width="1.8" stroke-dasharray="2 3"/>
  <circle cx="24" cy="24" r="16" stroke="url(#glow)" stroke-width="2" stroke-dasharray="4 2"/>
  <path d="M 24 10 A 14 14 0 1 0 38 24 A 12 12 0 1 1 24 10 Z" fill="url(#eclipse)" opacity="0.85"/>
  <circle cx="24" cy="24" r="3.5" fill="#00FFA3"/>
  <circle cx="24" cy="24" r="1.5" fill="#FFFFFF"/>
  <circle cx="24" cy="3" r="2" fill="#00F2FE"/>
  <circle cx="42" cy="13.5" r="2" fill="#6C5CE7"/>
  <circle cx="42" cy="34.5" r="2" fill="#00FFA3"/>
  <circle cx="24" cy="45" r="2" fill="#00F2FE"/>
  <circle cx="6" cy="34.5" r="2" fill="#6C5CE7"/>
  <circle cx="6" cy="13.5" r="2" fill="#00FFA3"/>
</svg>
